<?xml version="1.0" encoding="utf-8"?>

<!DOCTYPE svg PUBLIC "-//W3C//DTD SVG 1.1//EN" "http://www.w3.org/Graphics/SVG/1.1/DTD/svg11.dtd">
<svg version="1.1" id="Layer_1" xmlns="http://www.w3.org/2000/svg" xmlns:xlink="http://www.w3.org/1999/xlink" x="0px" y="0px"
	 viewBox="0 0 2560 1600" enable-background="new 0 0 2560 1600" xml:space="preserve">
<g>
	<polygon fill="none" stroke="#000000" stroke-width="2" stroke-miterlimit="10" points="53.031,0 38.797,0 45.914,12.5 	"/>
	<polygon fill="none" stroke="#000000" stroke-width="2" stroke-miterlimit="10" points="110.866,50 154.318,49.739 175.818,87.5 
		197.318,49.739 240.77,50 218.818,12.5 226.135,0 125.5,0 132.818,12.5 	"/>
	<polygon fill="none" stroke="#000000" stroke-width="2" stroke-miterlimit="10" points="312.839,0 298.604,0 305.721,12.5 	"/>
	<polygon fill="none" stroke="#000000" stroke-width="2" stroke-miterlimit="10" points="370.673,50 414.125,49.739 435.625,87.5 
		457.125,49.739 500.577,50 478.625,12.5 485.943,0 385.308,0 392.625,12.5 	"/>
	<polygon fill="none" stroke="#000000" stroke-width="2" stroke-miterlimit="10" points="572.646,0 558.412,0 565.529,12.5 	"/>
	<polygon fill="none" stroke="#000000" stroke-width="2" stroke-miterlimit="10" points="630.481,50 673.933,49.739 695.433,87.5 
		716.933,49.739 760.385,50 738.433,12.5 745.75,0 645.115,0 652.433,12.5 	"/>
	<polygon fill="none" stroke="#000000" stroke-width="2" stroke-miterlimit="10" points="832.454,0 818.219,0 825.337,12.5 	"/>
	<polygon fill="none" stroke="#000000" stroke-width="2" stroke-miterlimit="10" points="890.289,50 933.74,49.739 955.24,87.5 
		976.741,49.739 1020.192,50 998.241,12.5 1005.558,0 904.923,0 912.24,12.5 	"/>
	<polygon fill="none" stroke="#000000" stroke-width="2" stroke-miterlimit="10" points="1092.261,0 1078.027,0 1085.144,12.5 	"/>
	<polygon fill="none" stroke="#000000" stroke-width="2" stroke-miterlimit="10" points="1150.096,50 1193.548,49.739 
		1215.048,87.5 1236.548,49.739 1280,50 1258.048,12.5 1265.365,0 1164.731,0 1172.048,12.5 	"/>
	<polygon fill="none" stroke="#000000" stroke-width="2" stroke-miterlimit="10" points="1352.069,0 1337.835,0 1344.952,12.5 	"/>
	<polygon fill="none" stroke="#000000" stroke-width="2" stroke-miterlimit="10" points="1409.904,50 1453.356,49.739 
		1474.856,87.5 1496.356,49.739 1539.808,50 1517.856,12.5 1525.173,0 1424.538,0 1431.856,12.5 	"/>
	<polygon fill="none" stroke="#000000" stroke-width="2" stroke-miterlimit="10" points="1611.877,0 1597.642,0 1604.76,12.5 	"/>
	<polygon fill="none" stroke="#000000" stroke-width="2" stroke-miterlimit="10" points="1669.711,50 1713.163,49.739 
		1734.663,87.5 1756.163,49.739 1799.615,50 1777.663,12.5 1784.981,0 1684.346,0 1691.663,12.5 	"/>
	<polygon fill="none" stroke="#000000" stroke-width="2" stroke-miterlimit="10" points="1871.684,0 1857.45,0 1864.567,12.5 	"/>
	<polygon fill="none" stroke="#000000" stroke-width="2" stroke-miterlimit="10" points="1929.519,50 1972.971,49.739 
		1994.471,87.5 2015.971,49.739 2059.423,50 2037.471,12.5 2044.788,0 1944.154,0 1951.471,12.5 	"/>
	<polygon fill="none" stroke="#000000" stroke-width="2" stroke-miterlimit="10" points="2131.492,0 2117.258,0 2124.375,12.5 	"/>
	<polygon fill="none" stroke="#000000" stroke-width="2" stroke-miterlimit="10" points="2189.327,50 2232.779,49.739 
		2254.279,87.5 2275.779,49.739 2319.23,50 2297.279,12.5 2304.596,0 2203.961,0 2211.278,12.5 	"/>
	<polygon fill="none" stroke="#000000" stroke-width="2" stroke-miterlimit="10" points="2391.3,0 2377.065,0 2384.182,12.5 	"/>
	<polygon fill="none" stroke="#000000" stroke-width="2" stroke-miterlimit="10" points="2557.086,12.5 2560,7.523 2560,0 
		2463.769,0 2471.086,12.5 2449.134,50 2492.586,49.739 2514.086,87.5 2535.586,49.739 2560,49.886 2560,17.477 	"/>
	<polygon fill="none" stroke="#000000" stroke-width="2" stroke-miterlimit="10" points="45.914,162.5 67.414,124.739 110.866,125 
		88.914,87.5 110.866,50 67.414,50.261 45.914,12.5 24.414,50.261 0,50.114 0,82.523 2.914,87.5 0,92.477 0,124.886 24.414,124.739 
			"/>
	<polygon fill="none" stroke="#000000" stroke-width="2" stroke-miterlimit="10" points="197.318,125.261 175.818,87.5 
		154.318,125.261 110.866,125 132.818,162.5 110.866,200 154.318,199.739 175.818,237.5 197.318,199.739 240.77,200 218.818,162.5 
		240.77,125 	"/>
	<polygon fill="none" stroke="#000000" stroke-width="2" stroke-miterlimit="10" points="327.221,50.261 305.721,12.5 
		284.221,50.261 240.77,50 262.721,87.5 240.77,125 284.221,124.739 305.721,162.5 327.221,124.739 370.673,125 348.722,87.5 
		370.673,50 	"/>
	<polygon fill="none" stroke="#000000" stroke-width="2" stroke-miterlimit="10" points="457.125,125.261 435.625,87.5 
		414.125,125.261 370.673,125 392.625,162.5 370.673,200 414.125,199.739 435.625,237.5 457.125,199.739 500.577,200 478.625,162.5 
		500.577,125 	"/>
	<polygon fill="none" stroke="#000000" stroke-width="2" stroke-miterlimit="10" points="587.029,50.261 565.529,12.5 
		544.029,50.261 500.577,50 522.529,87.5 500.577,125 544.029,124.739 565.529,162.5 587.029,124.739 630.481,125 608.529,87.5 
		630.481,50 	"/>
	<polygon fill="none" stroke="#000000" stroke-width="2" stroke-miterlimit="10" points="716.933,125.261 695.433,87.5 
		673.933,125.261 630.481,125 652.433,162.5 630.481,200 673.933,199.739 695.433,237.5 716.933,199.739 760.385,200 738.433,162.5 
		760.385,125 	"/>
	<polygon fill="none" stroke="#000000" stroke-width="2" stroke-miterlimit="10" points="846.837,50.261 825.337,12.5 
		803.837,50.261 760.385,50 782.337,87.5 760.385,125 803.837,124.739 825.337,162.5 846.837,124.739 890.289,125 868.337,87.5 
		890.289,50 	"/>
	<polygon fill="none" stroke="#000000" stroke-width="2" stroke-miterlimit="10" points="976.741,125.261 955.24,87.5 
		933.74,125.261 890.289,125 912.24,162.5 890.289,200 933.74,199.739 955.24,237.5 976.741,199.739 1020.192,200 998.241,162.5 
		1020.192,125 	"/>
	<polygon fill="none" stroke="#000000" stroke-width="2" stroke-miterlimit="10" points="1106.644,50.261 1085.144,12.5 
		1063.644,50.261 1020.192,50 1042.144,87.5 1020.192,125 1063.644,124.739 1085.144,162.5 1106.644,124.739 1150.096,125 
		1128.144,87.5 1150.096,50 	"/>
	<polygon fill="none" stroke="#000000" stroke-width="2" stroke-miterlimit="10" points="1236.548,125.261 1215.048,87.5 
		1193.548,125.261 1150.096,125 1172.048,162.5 1150.096,200 1193.548,199.739 1215.048,237.5 1236.548,199.739 1280,200 
		1258.048,162.5 1280,125 	"/>
	<polygon fill="none" stroke="#000000" stroke-width="2" stroke-miterlimit="10" points="1366.452,50.261 1344.952,12.5 
		1323.452,50.261 1280,50 1301.952,87.5 1280,125 1323.452,124.739 1344.952,162.5 1366.452,124.739 1409.904,125 1387.952,87.5 
		1409.904,50 	"/>
	<polygon fill="none" stroke="#000000" stroke-width="2" stroke-miterlimit="10" points="1496.356,125.261 1474.856,87.5 
		1453.356,125.261 1409.904,125 1431.856,162.5 1409.904,200 1453.356,199.739 1474.856,237.5 1496.356,199.739 1539.808,200 
		1517.856,162.5 1539.808,125 	"/>
	<polygon fill="none" stroke="#000000" stroke-width="2" stroke-miterlimit="10" points="1626.26,50.261 1604.76,12.5 
		1583.26,50.261 1539.808,50 1561.759,87.5 1539.808,125 1583.26,124.739 1604.76,162.5 1626.26,124.739 1669.711,125 1647.76,87.5 
		1669.711,50 	"/>
	<polygon fill="none" stroke="#000000" stroke-width="2" stroke-miterlimit="10" points="1756.163,125.261 1734.663,87.5 
		1713.163,125.261 1669.711,125 1691.663,162.5 1669.711,200 1713.163,199.739 1734.663,237.5 1756.163,199.739 1799.615,200 
		1777.663,162.5 1799.615,125 	"/>
	<polygon fill="none" stroke="#000000" stroke-width="2" stroke-miterlimit="10" points="1886.067,50.261 1864.567,12.5 
		1843.067,50.261 1799.615,50 1821.567,87.5 1799.615,125 1843.067,124.739 1864.567,162.5 1886.067,124.739 1929.519,125 
		1907.567,87.5 1929.519,50 	"/>
	<polygon fill="none" stroke="#000000" stroke-width="2" stroke-miterlimit="10" points="2015.971,125.261 1994.471,87.5 
		1972.971,125.261 1929.519,125 1951.471,162.5 1929.519,200 1972.971,199.739 1994.471,237.5 2015.971,199.739 2059.423,200 
		2037.471,162.5 2059.423,125 	"/>
	<polygon fill="none" stroke="#000000" stroke-width="2" stroke-miterlimit="10" points="2145.875,50.261 2124.375,12.5 
		2102.875,50.261 2059.423,50 2081.375,87.5 2059.423,125 2102.875,124.739 2124.375,162.5 2145.875,124.739 2189.327,125 
		2167.375,87.5 2189.327,50 	"/>
	<polygon fill="none" stroke="#000000" stroke-width="2" stroke-miterlimit="10" points="2275.779,125.261 2254.279,87.5 
		2232.779,125.261 2189.327,125 2211.278,162.5 2189.327,200 2232.779,199.739 2254.279,237.5 2275.779,199.739 2319.23,200 
		2297.279,162.5 2319.23,125 	"/>
	<polygon fill="none" stroke="#000000" stroke-width="2" stroke-miterlimit="10" points="2405.682,50.261 2384.182,12.5 
		2362.682,50.261 2319.23,50 2341.182,87.5 2319.23,125 2362.682,124.739 2384.182,162.5 2405.682,124.739 2449.134,125 
		2427.183,87.5 2449.134,50 	"/>
	<polygon fill="none" stroke="#000000" stroke-width="2" stroke-miterlimit="10" points="2557.086,162.5 2560,157.523 2560,125.114 
		2535.586,125.261 2514.086,87.5 2492.586,125.261 2449.134,125 2471.086,162.5 2449.134,200 2492.586,199.739 2514.086,237.5 
		2535.586,199.739 2560,199.886 2560,167.477 	"/>
	<polygon fill="none" stroke="#000000" stroke-width="2" stroke-miterlimit="10" points="45.914,312.5 67.414,274.739 110.866,275 
		88.914,237.5 110.866,200 67.414,200.261 45.914,162.5 24.414,200.261 0,200.114 0,232.523 2.914,237.5 0,242.477 0,274.886 
		24.414,274.739 	"/>
	<polygon fill="none" stroke="#000000" stroke-width="2" stroke-miterlimit="10" points="197.318,275.261 175.818,237.5 
		154.318,275.261 110.866,275 132.818,312.5 110.866,350 154.318,349.739 175.818,387.5 197.318,349.739 240.77,350 218.818,312.5 
		240.77,275 	"/>
	<polygon fill="none" stroke="#000000" stroke-width="2" stroke-miterlimit="10" points="327.221,200.261 305.721,162.5 
		284.221,200.261 240.77,200 262.721,237.5 240.77,275 284.221,274.739 305.721,312.5 327.221,274.739 370.673,275 348.722,237.5 
		370.673,200 	"/>
	<polygon fill="none" stroke="#000000" stroke-width="2" stroke-miterlimit="10" points="457.125,275.261 435.625,237.5 
		414.125,275.261 370.673,275 392.625,312.5 370.673,350 414.125,349.739 435.625,387.5 457.125,349.739 500.577,350 478.625,312.5 
		500.577,275 	"/>
	<polygon fill="none" stroke="#000000" stroke-width="2" stroke-miterlimit="10" points="587.029,200.261 565.529,162.5 
		544.029,200.261 500.577,200 522.529,237.5 500.577,275 544.029,274.739 565.529,312.5 587.029,274.739 630.481,275 608.529,237.5 
		630.481,200 	"/>
	<polygon fill="none" stroke="#000000" stroke-width="2" stroke-miterlimit="10" points="716.933,275.261 695.433,237.5 
		673.933,275.261 630.481,275 652.433,312.5 630.481,350 673.933,349.739 695.433,387.5 716.933,349.739 760.385,350 738.433,312.5 
		760.385,275 	"/>
	<polygon fill="none" stroke="#000000" stroke-width="2" stroke-miterlimit="10" points="846.837,200.261 825.337,162.5 
		803.837,200.261 760.385,200 782.337,237.5 760.385,275 803.837,274.739 825.337,312.5 846.837,274.739 890.289,275 868.337,237.5 
		890.289,200 	"/>
	<polygon fill="none" stroke="#000000" stroke-width="2" stroke-miterlimit="10" points="976.741,275.261 955.24,237.5 
		933.74,275.261 890.289,275 912.24,312.5 890.289,350 933.74,349.739 955.24,387.5 976.741,349.739 1020.192,350 998.241,312.5 
		1020.192,275 	"/>
	<polygon fill="none" stroke="#000000" stroke-width="2" stroke-miterlimit="10" points="1106.644,200.261 1085.144,162.5 
		1063.644,200.261 1020.192,200 1042.144,237.5 1020.192,275 1063.644,274.739 1085.144,312.5 1106.644,274.739 1150.096,275 
		1128.144,237.5 1150.096,200 	"/>
	<polygon fill="none" stroke="#000000" stroke-width="2" stroke-miterlimit="10" points="1236.548,275.261 1215.048,237.5 
		1193.548,275.261 1150.096,275 1172.048,312.5 1150.096,350 1193.548,349.739 1215.048,387.5 1236.548,349.739 1280,350 
		1258.048,312.5 1280,275 	"/>
	<polygon fill="none" stroke="#000000" stroke-width="2" stroke-miterlimit="10" points="1366.452,200.261 1344.952,162.5 
		1323.452,200.261 1280,200 1301.952,237.5 1280,275 1323.452,274.739 1344.952,312.5 1366.452,274.739 1409.904,275 
		1387.952,237.5 1409.904,200 	"/>
	<polygon fill="none" stroke="#000000" stroke-width="2" stroke-miterlimit="10" points="1496.356,275.261 1474.856,237.5 
		1453.356,275.261 1409.904,275 1431.856,312.5 1409.904,350 1453.356,349.739 1474.856,387.5 1496.356,349.739 1539.808,350 
		1517.856,312.5 1539.808,275 	"/>
	<polygon fill="none" stroke="#000000" stroke-width="2" stroke-miterlimit="10" points="1626.26,200.261 1604.76,162.5 
		1583.26,200.261 1539.808,200 1561.759,237.5 1539.808,275 1583.26,274.739 1604.76,312.5 1626.26,274.739 1669.711,275 
		1647.76,237.5 1669.711,200 	"/>
	<polygon fill="none" stroke="#000000" stroke-width="2" stroke-miterlimit="10" points="1756.163,275.261 1734.663,237.5 
		1713.163,275.261 1669.711,275 1691.663,312.5 1669.711,350 1713.163,349.739 1734.663,387.5 1756.163,349.739 1799.615,350 
		1777.663,312.5 1799.615,275 	"/>
	<polygon fill="none" stroke="#000000" stroke-width="2" stroke-miterlimit="10" points="1886.067,200.261 1864.567,162.5 
		1843.067,200.261 1799.615,200 1821.567,237.5 1799.615,275 1843.067,274.739 1864.567,312.5 1886.067,274.739 1929.519,275 
		1907.567,237.5 1929.519,200 	"/>
	<polygon fill="none" stroke="#000000" stroke-width="2" stroke-miterlimit="10" points="2015.971,275.261 1994.471,237.5 
		1972.971,275.261 1929.519,275 1951.471,312.5 1929.519,350 1972.971,349.739 1994.471,387.5 2015.971,349.739 2059.423,350 
		2037.471,312.5 2059.423,275 	"/>
	<polygon fill="none" stroke="#000000" stroke-width="2" stroke-miterlimit="10" points="2145.875,200.261 2124.375,162.5 
		2102.875,200.261 2059.423,200 2081.375,237.5 2059.423,275 2102.875,274.739 2124.375,312.5 2145.875,274.739 2189.327,275 
		2167.375,237.5 2189.327,200 	"/>
	<polygon fill="none" stroke="#000000" stroke-width="2" stroke-miterlimit="10" points="2275.779,275.261 2254.279,237.5 
		2232.779,275.261 2189.327,275 2211.278,312.5 2189.327,350 2232.779,349.739 2254.279,387.5 2275.779,349.739 2319.23,350 
		2297.279,312.5 2319.23,275 	"/>
	<polygon fill="none" stroke="#000000" stroke-width="2" stroke-miterlimit="10" points="2405.682,200.261 2384.182,162.5 
		2362.682,200.261 2319.23,200 2341.182,237.5 2319.23,275 2362.682,274.739 2384.182,312.5 2405.682,274.739 2449.134,275 
		2427.183,237.5 2449.134,200 	"/>
	<polygon fill="none" stroke="#000000" stroke-width="2" stroke-miterlimit="10" points="2557.086,312.5 2560,307.523 2560,275.114 
		2535.586,275.261 2514.086,237.5 2492.586,275.261 2449.134,275 2471.086,312.5 2449.134,350 2492.586,349.739 2514.086,387.5 
		2535.586,349.739 2560,349.886 2560,317.477 	"/>
	<polygon fill="none" stroke="#000000" stroke-width="2" stroke-miterlimit="10" points="45.914,462.5 67.414,424.739 110.866,425 
		88.914,387.5 110.866,350 67.414,350.261 45.914,312.5 24.414,350.261 0,350.114 0,382.523 2.914,387.5 0,392.477 0,424.886 
		24.414,424.739 	"/>
	<polygon fill="none" stroke="#000000" stroke-width="2" stroke-miterlimit="10" points="197.318,425.261 175.818,387.5 
		154.318,425.261 110.866,425 132.818,462.5 110.866,500 154.318,499.739 175.818,537.5 197.318,499.739 240.77,500 218.818,462.5 
		240.77,425 	"/>
	<polygon fill="none" stroke="#000000" stroke-width="2" stroke-miterlimit="10" points="327.221,350.261 305.721,312.5 
		284.221,350.261 240.77,350 262.721,387.5 240.77,425 284.221,424.739 305.721,462.5 327.221,424.739 370.673,425 348.722,387.5 
		370.673,350 	"/>
	<polygon fill="none" stroke="#000000" stroke-width="2" stroke-miterlimit="10" points="457.125,425.261 435.625,387.5 
		414.125,425.261 370.673,425 392.625,462.5 370.673,500 414.125,499.739 435.625,537.5 457.125,499.739 500.577,500 478.625,462.5 
		500.577,425 	"/>
	<polygon fill="none" stroke="#000000" stroke-width="2" stroke-miterlimit="10" points="587.029,350.261 565.529,312.5 
		544.029,350.261 500.577,350 522.529,387.5 500.577,425 544.029,424.739 565.529,462.5 587.029,424.739 630.481,425 608.529,387.5 
		630.481,350 	"/>
	<polygon fill="none" stroke="#000000" stroke-width="2" stroke-miterlimit="10" points="716.933,425.261 695.433,387.5 
		673.933,425.261 630.481,425 652.433,462.5 630.481,500 673.933,499.739 695.433,537.5 716.933,499.739 760.385,500 738.433,462.5 
		760.385,425 	"/>
	<polygon fill="none" stroke="#000000" stroke-width="2" stroke-miterlimit="10" points="846.837,350.261 825.337,312.5 
		803.837,350.261 760.385,350 782.337,387.5 760.385,425 803.837,424.739 825.337,462.5 846.837,424.739 890.289,425 868.337,387.5 
		890.289,350 	"/>
	<polygon fill="none" stroke="#000000" stroke-width="2" stroke-miterlimit="10" points="976.741,425.261 955.24,387.5 
		933.74,425.261 890.289,425 912.24,462.5 890.289,500 933.74,499.739 955.24,537.5 976.741,499.739 1020.192,500 998.241,462.5 
		1020.192,425 	"/>
	<polygon fill="none" stroke="#000000" stroke-width="2" stroke-miterlimit="10" points="1106.644,350.261 1085.144,312.5 
		1063.644,350.261 1020.192,350 1042.144,387.5 1020.192,425 1063.644,424.739 1085.144,462.5 1106.644,424.739 1150.096,425 
		1128.144,387.5 1150.096,350 	"/>
	<polygon fill="none" stroke="#000000" stroke-width="2" stroke-miterlimit="10" points="1236.548,425.261 1215.048,387.5 
		1193.548,425.261 1150.096,425 1172.048,462.5 1150.096,500 1193.548,499.739 1215.048,537.5 1236.548,499.739 1280,500 
		1258.048,462.5 1280,425 	"/>
	<polygon fill="none" stroke="#000000" stroke-width="2" stroke-miterlimit="10" points="1366.452,350.261 1344.952,312.5 
		1323.452,350.261 1280,350 1301.952,387.5 1280,425 1323.452,424.739 1344.952,462.5 1366.452,424.739 1409.904,425 
		1387.952,387.5 1409.904,350 	"/>
	<polygon fill="none" stroke="#000000" stroke-width="2" stroke-miterlimit="10" points="1496.356,425.261 1474.856,387.5 
		1453.356,425.261 1409.904,425 1431.856,462.5 1409.904,500 1453.356,499.739 1474.856,537.5 1496.356,499.739 1539.808,500 
		1517.856,462.5 1539.808,425 	"/>
	<polygon fill="none" stroke="#000000" stroke-width="2" stroke-miterlimit="10" points="1626.26,350.261 1604.76,312.5 
		1583.26,350.261 1539.808,350 1561.759,387.5 1539.808,425 1583.26,424.739 1604.76,462.5 1626.26,424.739 1669.711,425 
		1647.76,387.5 1669.711,350 	"/>
	<polygon fill="none" stroke="#000000" stroke-width="2" stroke-miterlimit="10" points="1756.163,425.261 1734.663,387.5 
		1713.163,425.261 1669.711,425 1691.663,462.5 1669.711,500 1713.163,499.739 1734.663,537.5 1756.163,499.739 1799.615,500 
		1777.663,462.5 1799.615,425 	"/>
	<polygon fill="none" stroke="#000000" stroke-width="2" stroke-miterlimit="10" points="1886.067,350.261 1864.567,312.5 
		1843.067,350.261 1799.615,350 1821.567,387.5 1799.615,425 1843.067,424.739 1864.567,462.5 1886.067,424.739 1929.519,425 
		1907.567,387.5 1929.519,350 	"/>
	<polygon fill="none" stroke="#000000" stroke-width="2" stroke-miterlimit="10" points="2015.971,425.261 1994.471,387.5 
		1972.971,425.261 1929.519,425 1951.471,462.5 1929.519,500 1972.971,499.739 1994.471,537.5 2015.971,499.739 2059.423,500 
		2037.471,462.5 2059.423,425 	"/>
	<polygon fill="none" stroke="#000000" stroke-width="2" stroke-miterlimit="10" points="2145.875,350.261 2124.375,312.5 
		2102.875,350.261 2059.423,350 2081.375,387.5 2059.423,425 2102.875,424.739 2124.375,462.5 2145.875,424.739 2189.327,425 
		2167.375,387.5 2189.327,350 	"/>
	<polygon fill="none" stroke="#000000" stroke-width="2" stroke-miterlimit="10" points="2275.779,425.261 2254.279,387.5 
		2232.779,425.261 2189.327,425 2211.278,462.5 2189.327,500 2232.779,499.739 2254.279,537.5 2275.779,499.739 2319.23,500 
		2297.279,462.5 2319.23,425 	"/>
	<polygon fill="none" stroke="#000000" stroke-width="2" stroke-miterlimit="10" points="2405.682,350.261 2384.182,312.5 
		2362.682,350.261 2319.23,350 2341.182,387.5 2319.23,425 2362.682,424.739 2384.182,462.5 2405.682,424.739 2449.134,425 
		2427.183,387.5 2449.134,350 	"/>
	<polygon fill="none" stroke="#000000" stroke-width="2" stroke-miterlimit="10" points="2557.086,462.5 2560,457.523 2560,425.114 
		2535.586,425.261 2514.086,387.5 2492.586,425.261 2449.134,425 2471.086,462.5 2449.134,500 2492.586,499.739 2514.086,537.5 
		2535.586,499.739 2560,499.886 2560,467.477 	"/>
	<polygon fill="none" stroke="#000000" stroke-width="2" stroke-miterlimit="10" points="45.914,612.5 67.414,574.739 110.866,575 
		88.914,537.5 110.866,500 67.414,500.261 45.914,462.5 24.414,500.261 0,500.114 0,532.523 2.914,537.5 0,542.477 0,574.886 
		24.414,574.739 	"/>
	<polygon fill="none" stroke="#000000" stroke-width="2" stroke-miterlimit="10" points="197.318,575.261 175.818,537.5 
		154.318,575.261 110.866,575 132.818,612.5 110.866,650 154.318,649.739 175.818,687.5 197.318,649.739 240.77,650 218.818,612.5 
		240.77,575 	"/>
	<polygon fill="none" stroke="#000000" stroke-width="2" stroke-miterlimit="10" points="327.221,500.261 305.721,462.5 
		284.221,500.261 240.77,500 262.721,537.5 240.77,575 284.221,574.739 305.721,612.5 327.221,574.739 370.673,575 348.722,537.5 
		370.673,500 	"/>
	<polygon fill="none" stroke="#000000" stroke-width="2" stroke-miterlimit="10" points="457.125,575.261 435.625,537.5 
		414.125,575.261 370.673,575 392.625,612.5 370.673,650 414.125,649.739 435.625,687.5 457.125,649.739 500.577,650 478.625,612.5 
		500.577,575 	"/>
	<polygon fill="none" stroke="#000000" stroke-width="2" stroke-miterlimit="10" points="587.029,500.261 565.529,462.5 
		544.029,500.261 500.577,500 522.529,537.5 500.577,575 544.029,574.739 565.529,612.5 587.029,574.739 630.481,575 608.529,537.5 
		630.481,500 	"/>
	<polygon fill="none" stroke="#000000" stroke-width="2" stroke-miterlimit="10" points="716.933,575.261 695.433,537.5 
		673.933,575.261 630.481,575 652.433,612.5 630.481,650 673.933,649.739 695.433,687.5 716.933,649.739 760.385,650 738.433,612.5 
		760.385,575 	"/>
	<polygon fill="none" stroke="#000000" stroke-width="2" stroke-miterlimit="10" points="846.837,500.261 825.337,462.5 
		803.837,500.261 760.385,500 782.337,537.5 760.385,575 803.837,574.739 825.337,612.5 846.837,574.739 890.289,575 868.337,537.5 
		890.289,500 	"/>
	<polygon fill="none" stroke="#000000" stroke-width="2" stroke-miterlimit="10" points="976.741,575.261 955.24,537.5 
		933.74,575.261 890.289,575 912.24,612.5 890.289,650 933.74,649.739 955.24,687.5 976.741,649.739 1020.192,650 998.241,612.5 
		1020.192,575 	"/>
	<polygon fill="none" stroke="#000000" stroke-width="2" stroke-miterlimit="10" points="1106.644,500.261 1085.144,462.5 
		1063.644,500.261 1020.192,500 1042.144,537.5 1020.192,575 1063.644,574.739 1085.144,612.5 1106.644,574.739 1150.096,575 
		1128.144,537.5 1150.096,500 	"/>
	<polygon fill="none" stroke="#000000" stroke-width="2" stroke-miterlimit="10" points="1236.548,575.261 1215.048,537.5 
		1193.548,575.261 1150.096,575 1172.048,612.5 1150.096,650 1193.548,649.739 1215.048,687.5 1236.548,649.739 1280,650 
		1258.048,612.5 1280,575 	"/>
	<polygon fill="none" stroke="#000000" stroke-width="2" stroke-miterlimit="10" points="1366.452,500.261 1344.952,462.5 
		1323.452,500.261 1280,500 1301.952,537.5 1280,575 1323.452,574.739 1344.952,612.5 1366.452,574.739 1409.904,575 
		1387.952,537.5 1409.904,500 	"/>
	<polygon fill="none" stroke="#000000" stroke-width="2" stroke-miterlimit="10" points="1496.356,575.261 1474.856,537.5 
		1453.356,575.261 1409.904,575 1431.856,612.5 1409.904,650 1453.356,649.739 1474.856,687.5 1496.356,649.739 1539.808,650 
		1517.856,612.5 1539.808,575 	"/>
	<polygon fill="none" stroke="#000000" stroke-width="2" stroke-miterlimit="10" points="1626.26,500.261 1604.76,462.5 
		1583.26,500.261 1539.808,500 1561.759,537.5 1539.808,575 1583.26,574.739 1604.76,612.5 1626.26,574.739 1669.711,575 
		1647.76,537.5 1669.711,500 	"/>
	<polygon fill="none" stroke="#000000" stroke-width="2" stroke-miterlimit="10" points="1756.163,575.261 1734.663,537.5 
		1713.163,575.261 1669.711,575 1691.663,612.5 1669.711,650 1713.163,649.739 1734.663,687.5 1756.163,649.739 1799.615,650 
		1777.663,612.5 1799.615,575 	"/>
	<polygon fill="none" stroke="#000000" stroke-width="2" stroke-miterlimit="10" points="1886.067,500.261 1864.567,462.5 
		1843.067,500.261 1799.615,500 1821.567,537.5 1799.615,575 1843.067,574.739 1864.567,612.5 1886.067,574.739 1929.519,575 
		1907.567,537.5 1929.519,500 	"/>
	<polygon fill="none" stroke="#000000" stroke-width="2" stroke-miterlimit="10" points="2015.971,575.261 1994.471,537.5 
		1972.971,575.261 1929.519,575 1951.471,612.5 1929.519,650 1972.971,649.739 1994.471,687.5 2015.971,649.739 2059.423,650 
		2037.471,612.5 2059.423,575 	"/>
	<polygon fill="none" stroke="#000000" stroke-width="2" stroke-miterlimit="10" points="2145.875,500.261 2124.375,462.5 
		2102.875,500.261 2059.423,500 2081.375,537.5 2059.423,575 2102.875,574.739 2124.375,612.5 2145.875,574.739 2189.327,575 
		2167.375,537.5 2189.327,500 	"/>
	<polygon fill="none" stroke="#000000" stroke-width="2" stroke-miterlimit="10" points="2275.779,575.261 2254.279,537.5 
		2232.779,575.261 2189.327,575 2211.278,612.5 2189.327,650 2232.779,649.739 2254.279,687.5 2275.779,649.739 2319.23,650 
		2297.279,612.5 2319.23,575 	"/>
	<polygon fill="none" stroke="#000000" stroke-width="2" stroke-miterlimit="10" points="2405.682,500.261 2384.182,462.5 
		2362.682,500.261 2319.23,500 2341.182,537.5 2319.23,575 2362.682,574.739 2384.182,612.5 2405.682,574.739 2449.134,575 
		2427.183,537.5 2449.134,500 	"/>
	<polygon fill="none" stroke="#000000" stroke-width="2" stroke-miterlimit="10" points="2557.086,612.5 2560,607.523 2560,575.114 
		2535.586,575.261 2514.086,537.5 2492.586,575.261 2449.134,575 2471.086,612.5 2449.134,650 2492.586,649.739 2514.086,687.5 
		2535.586,649.739 2560,649.886 2560,617.477 	"/>
	<polygon fill="none" stroke="#000000" stroke-width="2" stroke-miterlimit="10" points="45.914,762.5 67.414,724.739 110.866,725 
		88.914,687.5 110.866,650 67.414,650.261 45.914,612.5 24.414,650.261 0,650.114 0,682.523 2.914,687.5 0,692.477 0,724.886 
		24.414,724.739 	"/>
	<polygon fill="none" stroke="#000000" stroke-width="2" stroke-miterlimit="10" points="197.318,725.261 175.818,687.5 
		154.318,725.261 110.866,725 132.818,762.5 110.866,800 154.318,799.739 175.818,837.5 197.318,799.739 240.77,800 218.818,762.5 
		240.77,725 	"/>
	<polygon fill="none" stroke="#000000" stroke-width="2" stroke-miterlimit="10" points="327.221,650.261 305.721,612.5 
		284.221,650.261 240.77,650 262.721,687.5 240.77,725 284.221,724.739 305.721,762.5 327.221,724.739 370.673,725 348.722,687.5 
		370.673,650 	"/>
	<polygon fill="none" stroke="#000000" stroke-width="2" stroke-miterlimit="10" points="457.125,725.261 435.625,687.5 
		414.125,725.261 370.673,725 392.625,762.5 370.673,800 414.125,799.739 435.625,837.5 457.125,799.739 500.577,800 478.625,762.5 
		500.577,725 	"/>
	<polygon fill="none" stroke="#000000" stroke-width="2" stroke-miterlimit="10" points="587.029,650.261 565.529,612.5 
		544.029,650.261 500.577,650 522.529,687.5 500.577,725 544.029,724.739 565.529,762.5 587.029,724.739 630.481,725 608.529,687.5 
		630.481,650 	"/>
	<polygon fill="none" stroke="#000000" stroke-width="2" stroke-miterlimit="10" points="716.933,725.261 695.433,687.5 
		673.933,725.261 630.481,725 652.433,762.5 630.481,800 673.933,799.739 695.433,837.5 716.933,799.739 760.385,800 738.433,762.5 
		760.385,725 	"/>
	<polygon fill="none" stroke="#000000" stroke-width="2" stroke-miterlimit="10" points="846.837,650.261 825.337,612.5 
		803.837,650.261 760.385,650 782.337,687.5 760.385,725 803.837,724.739 825.337,762.5 846.837,724.739 890.289,725 868.337,687.5 
		890.289,650 	"/>
	<polygon fill="none" stroke="#000000" stroke-width="2" stroke-miterlimit="10" points="976.741,725.261 955.24,687.5 
		933.74,725.261 890.289,725 912.24,762.5 890.289,800 933.74,799.739 955.24,837.5 976.741,799.739 1020.192,800 998.241,762.5 
		1020.192,725 	"/>
	<polygon fill="none" stroke="#000000" stroke-width="2" stroke-miterlimit="10" points="1106.644,650.261 1085.144,612.5 
		1063.644,650.261 1020.192,650 1042.144,687.5 1020.192,725 1063.644,724.739 1085.144,762.5 1106.644,724.739 1150.096,725 
		1128.144,687.5 1150.096,650 	"/>
	<polygon fill="none" stroke="#000000" stroke-width="2" stroke-miterlimit="10" points="1236.548,725.261 1215.048,687.5 
		1193.548,725.261 1150.096,725 1172.048,762.5 1150.096,800 1193.548,799.739 1215.048,837.5 1236.548,799.739 1280,800 
		1258.048,762.5 1280,725 	"/>
	<polygon fill="none" stroke="#000000" stroke-width="2" stroke-miterlimit="10" points="1366.452,650.261 1344.952,612.5 
		1323.452,650.261 1280,650 1301.952,687.5 1280,725 1323.452,724.739 1344.952,762.5 1366.452,724.739 1409.904,725 
		1387.952,687.5 1409.904,650 	"/>
	<polygon fill="none" stroke="#000000" stroke-width="2" stroke-miterlimit="10" points="1496.356,725.261 1474.856,687.5 
		1453.356,725.261 1409.904,725 1431.856,762.5 1409.904,800 1453.356,799.739 1474.856,837.5 1496.356,799.739 1539.808,800 
		1517.856,762.5 1539.808,725 	"/>
	<polygon fill="none" stroke="#000000" stroke-width="2" stroke-miterlimit="10" points="1626.26,650.261 1604.76,612.5 
		1583.26,650.261 1539.808,650 1561.759,687.5 1539.808,725 1583.26,724.739 1604.76,762.5 1626.26,724.739 1669.711,725 
		1647.76,687.5 1669.711,650 	"/>
	<polygon fill="none" stroke="#000000" stroke-width="2" stroke-miterlimit="10" points="1756.163,725.261 1734.663,687.5 
		1713.163,725.261 1669.711,725 1691.663,762.5 1669.711,800 1713.163,799.739 1734.663,837.5 1756.163,799.739 1799.615,800 
		1777.663,762.5 1799.615,725 	"/>
	<polygon fill="none" stroke="#000000" stroke-width="2" stroke-miterlimit="10" points="1886.067,650.261 1864.567,612.5 
		1843.067,650.261 1799.615,650 1821.567,687.5 1799.615,725 1843.067,724.739 1864.567,762.5 1886.067,724.739 1929.519,725 
		1907.567,687.5 1929.519,650 	"/>
	<polygon fill="none" stroke="#000000" stroke-width="2" stroke-miterlimit="10" points="2015.971,725.261 1994.471,687.5 
		1972.971,725.261 1929.519,725 1951.471,762.5 1929.519,800 1972.971,799.739 1994.471,837.5 2015.971,799.739 2059.423,800 
		2037.471,762.5 2059.423,725 	"/>
	<polygon fill="none" stroke="#000000" stroke-width="2" stroke-miterlimit="10" points="2145.875,650.261 2124.375,612.5 
		2102.875,650.261 2059.423,650 2081.375,687.5 2059.423,725 2102.875,724.739 2124.375,762.5 2145.875,724.739 2189.327,725 
		2167.375,687.5 2189.327,650 	"/>
	<polygon fill="none" stroke="#000000" stroke-width="2" stroke-miterlimit="10" points="2275.779,725.261 2254.279,687.5 
		2232.779,725.261 2189.327,725 2211.278,762.5 2189.327,800 2232.779,799.739 2254.279,837.5 2275.779,799.739 2319.23,800 
		2297.279,762.5 2319.23,725 	"/>
	<polygon fill="none" stroke="#000000" stroke-width="2" stroke-miterlimit="10" points="2405.682,650.261 2384.182,612.5 
		2362.682,650.261 2319.23,650 2341.182,687.5 2319.23,725 2362.682,724.739 2384.182,762.5 2405.682,724.739 2449.134,725 
		2427.183,687.5 2449.134,650 	"/>
	<polygon fill="none" stroke="#000000" stroke-width="2" stroke-miterlimit="10" points="2557.086,762.5 2560,757.523 2560,725.114 
		2535.586,725.261 2514.086,687.5 2492.586,725.261 2449.134,725 2471.086,762.5 2449.134,800 2492.586,799.739 2514.086,837.5 
		2535.586,799.739 2560,799.886 2560,767.477 	"/>
	<polygon fill="none" stroke="#000000" stroke-width="2" stroke-miterlimit="10" points="45.914,912.5 67.414,874.739 110.866,875 
		88.914,837.5 110.866,800 67.414,800.261 45.914,762.5 24.414,800.261 0,800.114 0,832.523 2.914,837.5 0,842.477 0,874.886 
		24.414,874.739 	"/>
	<polygon fill="none" stroke="#000000" stroke-width="2" stroke-miterlimit="10" points="197.318,875.261 175.818,837.5 
		154.318,875.261 110.866,875 132.818,912.5 110.866,950 154.318,949.739 175.818,987.5 197.318,949.739 240.77,950 218.818,912.5 
		240.77,875 	"/>
	<polygon fill="none" stroke="#000000" stroke-width="2" stroke-miterlimit="10" points="327.221,800.261 305.721,762.5 
		284.221,800.261 240.77,800 262.721,837.5 240.77,875 284.221,874.739 305.721,912.5 327.221,874.739 370.673,875 348.722,837.5 
		370.673,800 	"/>
	<polygon fill="none" stroke="#000000" stroke-width="2" stroke-miterlimit="10" points="457.125,875.261 435.625,837.5 
		414.125,875.261 370.673,875 392.625,912.5 370.673,950 414.125,949.739 435.625,987.5 457.125,949.739 500.577,950 478.625,912.5 
		500.577,875 	"/>
	<polygon fill="none" stroke="#000000" stroke-width="2" stroke-miterlimit="10" points="587.029,800.261 565.529,762.5 
		544.029,800.261 500.577,800 522.529,837.5 500.577,875 544.029,874.739 565.529,912.5 587.029,874.739 630.481,875 608.529,837.5 
		630.481,800 	"/>
	<polygon fill="none" stroke="#000000" stroke-width="2" stroke-miterlimit="10" points="716.933,875.261 695.433,837.5 
		673.933,875.261 630.481,875 652.433,912.5 630.481,950 673.933,949.739 695.433,987.5 716.933,949.739 760.385,950 738.433,912.5 
		760.385,875 	"/>
	<polygon fill="none" stroke="#000000" stroke-width="2" stroke-miterlimit="10" points="846.837,800.261 825.337,762.5 
		803.837,800.261 760.385,800 782.337,837.5 760.385,875 803.837,874.739 825.337,912.5 846.837,874.739 890.289,875 868.337,837.5 
		890.289,800 	"/>
	<polygon fill="none" stroke="#000000" stroke-width="2" stroke-miterlimit="10" points="976.741,875.261 955.24,837.5 
		933.74,875.261 890.289,875 912.24,912.5 890.289,950 933.74,949.739 955.24,987.5 976.741,949.739 1020.192,950 998.241,912.5 
		1020.192,875 	"/>
	<polygon fill="none" stroke="#000000" stroke-width="2" stroke-miterlimit="10" points="1106.644,800.261 1085.144,762.5 
		1063.644,800.261 1020.192,800 1042.144,837.5 1020.192,875 1063.644,874.739 1085.144,912.5 1106.644,874.739 1150.096,875 
		1128.144,837.5 1150.096,800 	"/>
	<polygon fill="none" stroke="#000000" stroke-width="2" stroke-miterlimit="10" points="1236.548,875.261 1215.048,837.5 
		1193.548,875.261 1150.096,875 1172.048,912.5 1150.096,950 1193.548,949.739 1215.048,987.5 1236.548,949.739 1280,950 
		1258.048,912.5 1280,875 	"/>
	<polygon fill="none" stroke="#000000" stroke-width="2" stroke-miterlimit="10" points="1366.452,800.261 1344.952,762.5 
		1323.452,800.261 1280,800 1301.952,837.5 1280,875 1323.452,874.739 1344.952,912.5 1366.452,874.739 1409.904,875 
		1387.952,837.5 1409.904,800 	"/>
	<polygon fill="none" stroke="#000000" stroke-width="2" stroke-miterlimit="10" points="1496.356,875.261 1474.856,837.5 
		1453.356,875.261 1409.904,875 1431.856,912.5 1409.904,950 1453.356,949.739 1474.856,987.5 1496.356,949.739 1539.808,950 
		1517.856,912.5 1539.808,875 	"/>
	<polygon fill="none" stroke="#000000" stroke-width="2" stroke-miterlimit="10" points="1626.26,800.261 1604.76,762.5 
		1583.26,800.261 1539.808,800 1561.759,837.5 1539.808,875 1583.26,874.739 1604.76,912.5 1626.26,874.739 1669.711,875 
		1647.76,837.5 1669.711,800 	"/>
	<polygon fill="none" stroke="#000000" stroke-width="2" stroke-miterlimit="10" points="1756.163,875.261 1734.663,837.5 
		1713.163,875.261 1669.711,875 1691.663,912.5 1669.711,950 1713.163,949.739 1734.663,987.5 1756.163,949.739 1799.615,950 
		1777.663,912.5 1799.615,875 	"/>
	<polygon fill="none" stroke="#000000" stroke-width="2" stroke-miterlimit="10" points="1886.067,800.261 1864.567,762.5 
		1843.067,800.261 1799.615,800 1821.567,837.5 1799.615,875 1843.067,874.739 1864.567,912.5 1886.067,874.739 1929.519,875 
		1907.567,837.5 1929.519,800 	"/>
	<polygon fill="none" stroke="#000000" stroke-width="2" stroke-miterlimit="10" points="2015.971,875.261 1994.471,837.5 
		1972.971,875.261 1929.519,875 1951.471,912.5 1929.519,950 1972.971,949.739 1994.471,987.5 2015.971,949.739 2059.423,950 
		2037.471,912.5 2059.423,875 	"/>
	<polygon fill="none" stroke="#000000" stroke-width="2" stroke-miterlimit="10" points="2145.875,800.261 2124.375,762.5 
		2102.875,800.261 2059.423,800 2081.375,837.5 2059.423,875 2102.875,874.739 2124.375,912.5 2145.875,874.739 2189.327,875 
		2167.375,837.5 2189.327,800 	"/>
	<polygon fill="none" stroke="#000000" stroke-width="2" stroke-miterlimit="10" points="2275.779,875.261 2254.279,837.5 
		2232.779,875.261 2189.327,875 2211.278,912.5 2189.327,950 2232.779,949.739 2254.279,987.5 2275.779,949.739 2319.23,950 
		2297.279,912.5 2319.23,875 	"/>
	<polygon fill="none" stroke="#000000" stroke-width="2" stroke-miterlimit="10" points="2405.682,800.261 2384.182,762.5 
		2362.682,800.261 2319.23,800 2341.182,837.5 2319.23,875 2362.682,874.739 2384.182,912.5 2405.682,874.739 2449.134,875 
		2427.183,837.5 2449.134,800 	"/>
	<polygon fill="none" stroke="#000000" stroke-width="2" stroke-miterlimit="10" points="2557.086,912.5 2560,907.523 2560,875.114 
		2535.586,875.261 2514.086,837.5 2492.586,875.261 2449.134,875 2471.086,912.5 2449.134,950 2492.586,949.739 2514.086,987.5 
		2535.586,949.739 2560,949.886 2560,917.477 	"/>
	<polygon fill="none" stroke="#000000" stroke-width="2" stroke-miterlimit="10" points="45.914,1062.5 67.414,1024.739 
		110.866,1025 88.914,987.5 110.866,950 67.414,950.261 45.914,912.5 24.414,950.261 0,950.114 0,982.523 2.914,987.5 0,992.477 
		0,1024.886 24.414,1024.739 	"/>
	<polygon fill="none" stroke="#000000" stroke-width="2" stroke-miterlimit="10" points="197.318,1025.261 175.818,987.5 
		154.318,1025.261 110.866,1025 132.818,1062.5 110.866,1100 154.318,1099.739 175.818,1137.5 197.318,1099.739 240.77,1100 
		218.818,1062.5 240.77,1025 	"/>
	<polygon fill="none" stroke="#000000" stroke-width="2" stroke-miterlimit="10" points="327.221,950.261 305.721,912.5 
		284.221,950.261 240.77,950 262.721,987.5 240.77,1025 284.221,1024.739 305.721,1062.5 327.221,1024.739 370.673,1025 
		348.722,987.5 370.673,950 	"/>
	<polygon fill="none" stroke="#000000" stroke-width="2" stroke-miterlimit="10" points="457.125,1025.261 435.625,987.5 
		414.125,1025.261 370.673,1025 392.625,1062.5 370.673,1100 414.125,1099.739 435.625,1137.5 457.125,1099.739 500.577,1100 
		478.625,1062.5 500.577,1025 	"/>
	<polygon fill="none" stroke="#000000" stroke-width="2" stroke-miterlimit="10" points="587.029,950.261 565.529,912.5 
		544.029,950.261 500.577,950 522.529,987.5 500.577,1025 544.029,1024.739 565.529,1062.5 587.029,1024.739 630.481,1025 
		608.529,987.5 630.481,950 	"/>
	<polygon fill="none" stroke="#000000" stroke-width="2" stroke-miterlimit="10" points="716.933,1025.261 695.433,987.5 
		673.933,1025.261 630.481,1025 652.433,1062.5 630.481,1100 673.933,1099.739 695.433,1137.5 716.933,1099.739 760.385,1100 
		738.433,1062.5 760.385,1025 	"/>
	<polygon fill="none" stroke="#000000" stroke-width="2" stroke-miterlimit="10" points="846.837,950.261 825.337,912.5 
		803.837,950.261 760.385,950 782.337,987.5 760.385,1025 803.837,1024.739 825.337,1062.5 846.837,1024.739 890.289,1025 
		868.337,987.5 890.289,950 	"/>
	<polygon fill="none" stroke="#000000" stroke-width="2" stroke-miterlimit="10" points="976.741,1025.261 955.24,987.5 
		933.74,1025.261 890.289,1025 912.24,1062.5 890.289,1100 933.74,1099.739 955.24,1137.5 976.741,1099.739 1020.192,1100 
		998.241,1062.5 1020.192,1025 	"/>
	<polygon fill="none" stroke="#000000" stroke-width="2" stroke-miterlimit="10" points="1106.644,950.261 1085.144,912.5 
		1063.644,950.261 1020.192,950 1042.144,987.5 1020.192,1025 1063.644,1024.739 1085.144,1062.5 1106.644,1024.739 1150.096,1025 
		1128.144,987.5 1150.096,950 	"/>
	<polygon fill="none" stroke="#000000" stroke-width="2" stroke-miterlimit="10" points="1236.548,1025.261 1215.048,987.5 
		1193.548,1025.261 1150.096,1025 1172.048,1062.5 1150.096,1100 1193.548,1099.739 1215.048,1137.5 1236.548,1099.739 1280,1100 
		1258.048,1062.5 1280,1025 	"/>
	<polygon fill="none" stroke="#000000" stroke-width="2" stroke-miterlimit="10" points="1366.452,950.261 1344.952,912.5 
		1323.452,950.261 1280,950 1301.952,987.5 1280,1025 1323.452,1024.739 1344.952,1062.5 1366.452,1024.739 1409.904,1025 
		1387.952,987.5 1409.904,950 	"/>
	<polygon fill="none" stroke="#000000" stroke-width="2" stroke-miterlimit="10" points="1496.356,1025.261 1474.856,987.5 
		1453.356,1025.261 1409.904,1025 1431.856,1062.5 1409.904,1100 1453.356,1099.739 1474.856,1137.5 1496.356,1099.739 
		1539.808,1100 1517.856,1062.5 1539.808,1025 	"/>
	<polygon fill="none" stroke="#000000" stroke-width="2" stroke-miterlimit="10" points="1626.26,950.261 1604.76,912.5 
		1583.26,950.261 1539.808,950 1561.759,987.5 1539.808,1025 1583.26,1024.739 1604.76,1062.5 1626.26,1024.739 1669.711,1025 
		1647.76,987.5 1669.711,950 	"/>
	<polygon fill="none" stroke="#000000" stroke-width="2" stroke-miterlimit="10" points="1756.163,1025.261 1734.663,987.5 
		1713.163,1025.261 1669.711,1025 1691.663,1062.5 1669.711,1100 1713.163,1099.739 1734.663,1137.5 1756.163,1099.739 
		1799.615,1100 1777.663,1062.5 1799.615,1025 	"/>
	<polygon fill="none" stroke="#000000" stroke-width="2" stroke-miterlimit="10" points="1886.067,950.261 1864.567,912.5 
		1843.067,950.261 1799.615,950 1821.567,987.5 1799.615,1025 1843.067,1024.739 1864.567,1062.5 1886.067,1024.739 1929.519,1025 
		1907.567,987.5 1929.519,950 	"/>
	<polygon fill="none" stroke="#000000" stroke-width="2" stroke-miterlimit="10" points="2015.971,1025.261 1994.471,987.5 
		1972.971,1025.261 1929.519,1025 1951.471,1062.5 1929.519,1100 1972.971,1099.739 1994.471,1137.5 2015.971,1099.739 
		2059.423,1100 2037.471,1062.5 2059.423,1025 	"/>
	<polygon fill="none" stroke="#000000" stroke-width="2" stroke-miterlimit="10" points="2145.875,950.261 2124.375,912.5 
		2102.875,950.261 2059.423,950 2081.375,987.5 2059.423,1025 2102.875,1024.739 2124.375,1062.5 2145.875,1024.739 2189.327,1025 
		2167.375,987.5 2189.327,950 	"/>
	<polygon fill="none" stroke="#000000" stroke-width="2" stroke-miterlimit="10" points="2275.779,1025.261 2254.279,987.5 
		2232.779,1025.261 2189.327,1025 2211.278,1062.5 2189.327,1100 2232.779,1099.739 2254.279,1137.5 2275.779,1099.739 
		2319.23,1100 2297.279,1062.5 2319.23,1025 	"/>
	<polygon fill="none" stroke="#000000" stroke-width="2" stroke-miterlimit="10" points="2405.682,950.261 2384.182,912.5 
		2362.682,950.261 2319.23,950 2341.182,987.5 2319.23,1025 2362.682,1024.739 2384.182,1062.5 2405.682,1024.739 2449.134,1025 
		2427.183,987.5 2449.134,950 	"/>
	<polygon fill="none" stroke="#000000" stroke-width="2" stroke-miterlimit="10" points="2557.086,1062.5 2560,1057.523 
		2560,1025.114 2535.586,1025.261 2514.086,987.5 2492.586,1025.261 2449.134,1025 2471.086,1062.5 2449.134,1100 
		2492.586,1099.739 2514.086,1137.5 2535.586,1099.739 2560,1099.886 2560,1067.477 	"/>
	<polygon fill="none" stroke="#000000" stroke-width="2" stroke-miterlimit="10" points="45.914,1212.5 67.414,1174.739 
		110.866,1175 88.914,1137.5 110.866,1100 67.414,1100.261 45.914,1062.5 24.414,1100.261 0,1100.114 0,1132.523 2.914,1137.5 
		0,1142.477 0,1174.886 24.414,1174.739 	"/>
	<polygon fill="none" stroke="#000000" stroke-width="2" stroke-miterlimit="10" points="197.318,1175.261 175.818,1137.5 
		154.318,1175.261 110.866,1175 132.818,1212.5 110.866,1250 154.318,1249.739 175.818,1287.5 197.318,1249.739 240.77,1250 
		218.818,1212.5 240.77,1175 	"/>
	<polygon fill="none" stroke="#000000" stroke-width="2" stroke-miterlimit="10" points="327.221,1100.261 305.721,1062.5 
		284.221,1100.261 240.77,1100 262.721,1137.5 240.77,1175 284.221,1174.739 305.721,1212.5 327.221,1174.739 370.673,1175 
		348.722,1137.5 370.673,1100 	"/>
	<polygon fill="none" stroke="#000000" stroke-width="2" stroke-miterlimit="10" points="457.125,1175.261 435.625,1137.5 
		414.125,1175.261 370.673,1175 392.625,1212.5 370.673,1250 414.125,1249.739 435.625,1287.5 457.125,1249.739 500.577,1250 
		478.625,1212.5 500.577,1175 	"/>
	<polygon fill="none" stroke="#000000" stroke-width="2" stroke-miterlimit="10" points="587.029,1100.261 565.529,1062.5 
		544.029,1100.261 500.577,1100 522.529,1137.5 500.577,1175 544.029,1174.739 565.529,1212.5 587.029,1174.739 630.481,1175 
		608.529,1137.5 630.481,1100 	"/>
	<polygon fill="none" stroke="#000000" stroke-width="2" stroke-miterlimit="10" points="716.933,1175.261 695.433,1137.5 
		673.933,1175.261 630.481,1175 652.433,1212.5 630.481,1250 673.933,1249.739 695.433,1287.5 716.933,1249.739 760.385,1250 
		738.433,1212.5 760.385,1175 	"/>
	<polygon fill="none" stroke="#000000" stroke-width="2" stroke-miterlimit="10" points="846.837,1100.261 825.337,1062.5 
		803.837,1100.261 760.385,1100 782.337,1137.5 760.385,1175 803.837,1174.739 825.337,1212.5 846.837,1174.739 890.289,1175 
		868.337,1137.5 890.289,1100 	"/>
	<polygon fill="none" stroke="#000000" stroke-width="2" stroke-miterlimit="10" points="976.741,1175.261 955.24,1137.5 
		933.74,1175.261 890.289,1175 912.24,1212.5 890.289,1250 933.74,1249.739 955.24,1287.5 976.741,1249.739 1020.192,1250 
		998.241,1212.5 1020.192,1175 	"/>
	<polygon fill="none" stroke="#000000" stroke-width="2" stroke-miterlimit="10" points="1106.644,1100.261 1085.144,1062.5 
		1063.644,1100.261 1020.192,1100 1042.144,1137.5 1020.192,1175 1063.644,1174.739 1085.144,1212.5 1106.644,1174.739 
		1150.096,1175 1128.144,1137.5 1150.096,1100 	"/>
	<polygon fill="none" stroke="#000000" stroke-width="2" stroke-miterlimit="10" points="1236.548,1175.261 1215.048,1137.5 
		1193.548,1175.261 1150.096,1175 1172.048,1212.5 1150.096,1250 1193.548,1249.739 1215.048,1287.5 1236.548,1249.739 1280,1250 
		1258.048,1212.5 1280,1175 	"/>
	<polygon fill="none" stroke="#000000" stroke-width="2" stroke-miterlimit="10" points="1366.452,1100.261 1344.952,1062.5 
		1323.452,1100.261 1280,1100 1301.952,1137.5 1280,1175 1323.452,1174.739 1344.952,1212.5 1366.452,1174.739 1409.904,1175 
		1387.952,1137.5 1409.904,1100 	"/>
	<polygon fill="none" stroke="#000000" stroke-width="2" stroke-miterlimit="10" points="1496.356,1175.261 1474.856,1137.5 
		1453.356,1175.261 1409.904,1175 1431.856,1212.5 1409.904,1250 1453.356,1249.739 1474.856,1287.5 1496.356,1249.739 
		1539.808,1250 1517.856,1212.5 1539.808,1175 	"/>
	<polygon fill="none" stroke="#000000" stroke-width="2" stroke-miterlimit="10" points="1626.26,1100.261 1604.76,1062.5 
		1583.26,1100.261 1539.808,1100 1561.759,1137.5 1539.808,1175 1583.26,1174.739 1604.76,1212.5 1626.26,1174.739 1669.711,1175 
		1647.76,1137.5 1669.711,1100 	"/>
	<polygon fill="none" stroke="#000000" stroke-width="2" stroke-miterlimit="10" points="1756.163,1175.261 1734.663,1137.5 
		1713.163,1175.261 1669.711,1175 1691.663,1212.5 1669.711,1250 1713.163,1249.739 1734.663,1287.5 1756.163,1249.739 
		1799.615,1250 1777.663,1212.5 1799.615,1175 	"/>
	<polygon fill="none" stroke="#000000" stroke-width="2" stroke-miterlimit="10" points="1886.067,1100.261 1864.567,1062.5 
		1843.067,1100.261 1799.615,1100 1821.567,1137.5 1799.615,1175 1843.067,1174.739 1864.567,1212.5 1886.067,1174.739 
		1929.519,1175 1907.567,1137.5 1929.519,1100 	"/>
	<polygon fill="none" stroke="#000000" stroke-width="2" stroke-miterlimit="10" points="2015.971,1175.261 1994.471,1137.5 
		1972.971,1175.261 1929.519,1175 1951.471,1212.5 1929.519,1250 1972.971,1249.739 1994.471,1287.5 2015.971,1249.739 
		2059.423,1250 2037.471,1212.5 2059.423,1175 	"/>
	<polygon fill="none" stroke="#000000" stroke-width="2" stroke-miterlimit="10" points="2145.875,1100.261 2124.375,1062.5 
		2102.875,1100.261 2059.423,1100 2081.375,1137.5 2059.423,1175 2102.875,1174.739 2124.375,1212.5 2145.875,1174.739 
		2189.327,1175 2167.375,1137.5 2189.327,1100 	"/>
	<polygon fill="none" stroke="#000000" stroke-width="2" stroke-miterlimit="10" points="2275.779,1175.261 2254.279,1137.5 
		2232.779,1175.261 2189.327,1175 2211.278,1212.5 2189.327,1250 2232.779,1249.739 2254.279,1287.5 2275.779,1249.739 
		2319.23,1250 2297.279,1212.5 2319.23,1175 	"/>
	<polygon fill="none" stroke="#000000" stroke-width="2" stroke-miterlimit="10" points="2405.682,1100.261 2384.182,1062.5 
		2362.682,1100.261 2319.23,1100 2341.182,1137.5 2319.23,1175 2362.682,1174.739 2384.182,1212.5 2405.682,1174.739 2449.134,1175 
		2427.183,1137.5 2449.134,1100 	"/>
	<polygon fill="none" stroke="#000000" stroke-width="2" stroke-miterlimit="10" points="2557.086,1212.5 2560,1207.523 
		2560,1175.114 2535.586,1175.261 2514.086,1137.5 2492.586,1175.261 2449.134,1175 2471.086,1212.5 2449.134,1250 
		2492.586,1249.739 2514.086,1287.5 2535.586,1249.739 2560,1249.886 2560,1217.477 	"/>
	<polygon fill="none" stroke="#000000" stroke-width="2" stroke-miterlimit="10" points="45.914,1362.5 67.414,1324.739 
		110.866,1325 88.914,1287.5 110.866,1250 67.414,1250.261 45.914,1212.5 24.414,1250.261 0,1250.114 0,1282.523 2.914,1287.5 
		0,1292.477 0,1324.886 24.414,1324.739 	"/>
	<polygon fill="none" stroke="#000000" stroke-width="2" stroke-miterlimit="10" points="197.318,1325.261 175.818,1287.5 
		154.318,1325.261 110.866,1325 132.818,1362.5 110.866,1400 154.318,1399.739 175.818,1437.5 197.318,1399.739 240.77,1400 
		218.818,1362.5 240.77,1325 	"/>
	<polygon fill="none" stroke="#000000" stroke-width="2" stroke-miterlimit="10" points="327.221,1250.261 305.721,1212.5 
		284.221,1250.261 240.77,1250 262.721,1287.5 240.77,1325 284.221,1324.739 305.721,1362.5 327.221,1324.739 370.673,1325 
		348.722,1287.5 370.673,1250 	"/>
	<polygon fill="none" stroke="#000000" stroke-width="2" stroke-miterlimit="10" points="457.125,1325.261 435.625,1287.5 
		414.125,1325.261 370.673,1325 392.625,1362.5 370.673,1400 414.125,1399.739 435.625,1437.5 457.125,1399.739 500.577,1400 
		478.625,1362.5 500.577,1325 	"/>
	<polygon fill="none" stroke="#000000" stroke-width="2" stroke-miterlimit="10" points="587.029,1250.261 565.529,1212.5 
		544.029,1250.261 500.577,1250 522.529,1287.5 500.577,1325 544.029,1324.739 565.529,1362.5 587.029,1324.739 630.481,1325 
		608.529,1287.5 630.481,1250 	"/>
	<polygon fill="none" stroke="#000000" stroke-width="2" stroke-miterlimit="10" points="716.933,1325.261 695.433,1287.5 
		673.933,1325.261 630.481,1325 652.433,1362.5 630.481,1400 673.933,1399.739 695.433,1437.5 716.933,1399.739 760.385,1400 
		738.433,1362.5 760.385,1325 	"/>
	<polygon fill="none" stroke="#000000" stroke-width="2" stroke-miterlimit="10" points="846.837,1250.261 825.337,1212.5 
		803.837,1250.261 760.385,1250 782.337,1287.5 760.385,1325 803.837,1324.739 825.337,1362.5 846.837,1324.739 890.289,1325 
		868.337,1287.5 890.289,1250 	"/>
	<polygon fill="none" stroke="#000000" stroke-width="2" stroke-miterlimit="10" points="976.741,1325.261 955.24,1287.5 
		933.74,1325.261 890.289,1325 912.24,1362.5 890.289,1400 933.74,1399.739 955.24,1437.5 976.741,1399.739 1020.192,1400 
		998.241,1362.5 1020.192,1325 	"/>
	<polygon fill="none" stroke="#000000" stroke-width="2" stroke-miterlimit="10" points="1106.644,1250.261 1085.144,1212.5 
		1063.644,1250.261 1020.192,1250 1042.144,1287.5 1020.192,1325 1063.644,1324.739 1085.144,1362.5 1106.644,1324.739 
		1150.096,1325 1128.144,1287.5 1150.096,1250 	"/>
	<polygon fill="none" stroke="#000000" stroke-width="2" stroke-miterlimit="10" points="1236.548,1325.261 1215.048,1287.5 
		1193.548,1325.261 1150.096,1325 1172.048,1362.5 1150.096,1400 1193.548,1399.739 1215.048,1437.5 1236.548,1399.739 1280,1400 
		1258.048,1362.5 1280,1325 	"/>
	<polygon fill="none" stroke="#000000" stroke-width="2" stroke-miterlimit="10" points="1366.452,1250.261 1344.952,1212.5 
		1323.452,1250.261 1280,1250 1301.952,1287.5 1280,1325 1323.452,1324.739 1344.952,1362.5 1366.452,1324.739 1409.904,1325 
		1387.952,1287.5 1409.904,1250 	"/>
	<polygon fill="none" stroke="#000000" stroke-width="2" stroke-miterlimit="10" points="1496.356,1325.261 1474.856,1287.5 
		1453.356,1325.261 1409.904,1325 1431.856,1362.5 1409.904,1400 1453.356,1399.739 1474.856,1437.5 1496.356,1399.739 
		1539.808,1400 1517.856,1362.5 1539.808,1325 	"/>
	<polygon fill="none" stroke="#000000" stroke-width="2" stroke-miterlimit="10" points="1626.26,1250.261 1604.76,1212.5 
		1583.26,1250.261 1539.808,1250 1561.759,1287.5 1539.808,1325 1583.26,1324.739 1604.76,1362.5 1626.26,1324.739 1669.711,1325 
		1647.76,1287.5 1669.711,1250 	"/>
	<polygon fill="none" stroke="#000000" stroke-width="2" stroke-miterlimit="10" points="1756.163,1325.261 1734.663,1287.5 
		1713.163,1325.261 1669.711,1325 1691.663,1362.5 1669.711,1400 1713.163,1399.739 1734.663,1437.5 1756.163,1399.739 
		1799.615,1400 1777.663,1362.5 1799.615,1325 	"/>
	<polygon fill="none" stroke="#000000" stroke-width="2" stroke-miterlimit="10" points="1886.067,1250.261 1864.567,1212.5 
		1843.067,1250.261 1799.615,1250 1821.567,1287.5 1799.615,1325 1843.067,1324.739 1864.567,1362.5 1886.067,1324.739 
		1929.519,1325 1907.567,1287.5 1929.519,1250 	"/>
	<polygon fill="none" stroke="#000000" stroke-width="2" stroke-miterlimit="10" points="2015.971,1325.261 1994.471,1287.5 
		1972.971,1325.261 1929.519,1325 1951.471,1362.5 1929.519,1400 1972.971,1399.739 1994.471,1437.5 2015.971,1399.739 
		2059.423,1400 2037.471,1362.5 2059.423,1325 	"/>
	<polygon fill="none" stroke="#000000" stroke-width="2" stroke-miterlimit="10" points="2145.875,1250.261 2124.375,1212.5 
		2102.875,1250.261 2059.423,1250 2081.375,1287.5 2059.423,1325 2102.875,1324.739 2124.375,1362.5 2145.875,1324.739 
		2189.327,1325 2167.375,1287.5 2189.327,1250 	"/>
	<polygon fill="none" stroke="#000000" stroke-width="2" stroke-miterlimit="10" points="2275.779,1325.261 2254.279,1287.5 
		2232.779,1325.261 2189.327,1325 2211.278,1362.5 2189.327,1400 2232.779,1399.739 2254.279,1437.5 2275.779,1399.739 
		2319.23,1400 2297.279,1362.5 2319.23,1325 	"/>
	<polygon fill="none" stroke="#000000" stroke-width="2" stroke-miterlimit="10" points="2405.682,1250.261 2384.182,1212.5 
		2362.682,1250.261 2319.23,1250 2341.182,1287.5 2319.23,1325 2362.682,1324.739 2384.182,1362.5 2405.682,1324.739 2449.134,1325 
		2427.183,1287.5 2449.134,1250 	"/>
	<polygon fill="none" stroke="#000000" stroke-width="2" stroke-miterlimit="10" points="2557.086,1362.5 2560,1357.523 
		2560,1325.114 2535.586,1325.261 2514.086,1287.5 2492.586,1325.261 2449.134,1325 2471.086,1362.5 2449.134,1400 
		2492.586,1399.739 2514.086,1437.5 2535.586,1399.739 2560,1399.886 2560,1367.477 	"/>
	<polygon fill="none" stroke="#000000" stroke-width="2" stroke-miterlimit="10" points="45.914,1512.5 67.414,1474.739 
		110.866,1475 88.914,1437.5 110.866,1400 67.414,1400.261 45.914,1362.5 24.414,1400.261 0,1400.114 0,1432.523 2.914,1437.5 
		0,1442.477 0,1474.886 24.414,1474.739 	"/>
	<polygon fill="none" stroke="#000000" stroke-width="2" stroke-miterlimit="10" points="197.318,1475.261 175.818,1437.5 
		154.318,1475.261 110.866,1475 132.818,1512.5 110.866,1550 154.318,1549.739 175.818,1587.5 197.318,1549.739 240.77,1550 
		218.818,1512.5 240.77,1475 	"/>
	<polygon fill="none" stroke="#000000" stroke-width="2" stroke-miterlimit="10" points="327.221,1400.261 305.721,1362.5 
		284.221,1400.261 240.77,1400 262.721,1437.5 240.77,1475 284.221,1474.739 305.721,1512.5 327.221,1474.739 370.673,1475 
		348.722,1437.5 370.673,1400 	"/>
	<polygon fill="none" stroke="#000000" stroke-width="2" stroke-miterlimit="10" points="457.125,1475.261 435.625,1437.5 
		414.125,1475.261 370.673,1475 392.625,1512.5 370.673,1550 414.125,1549.739 435.625,1587.5 457.125,1549.739 500.577,1550 
		478.625,1512.5 500.577,1475 	"/>
	<polygon fill="none" stroke="#000000" stroke-width="2" stroke-miterlimit="10" points="587.029,1400.261 565.529,1362.5 
		544.029,1400.261 500.577,1400 522.529,1437.5 500.577,1475 544.029,1474.739 565.529,1512.5 587.029,1474.739 630.481,1475 
		608.529,1437.5 630.481,1400 	"/>
	<polygon fill="none" stroke="#000000" stroke-width="2" stroke-miterlimit="10" points="716.933,1475.261 695.433,1437.5 
		673.933,1475.261 630.481,1475 652.433,1512.5 630.481,1550 673.933,1549.739 695.433,1587.5 716.933,1549.739 760.385,1550 
		738.433,1512.5 760.385,1475 	"/>
	<polygon fill="none" stroke="#000000" stroke-width="2" stroke-miterlimit="10" points="846.837,1400.261 825.337,1362.5 
		803.837,1400.261 760.385,1400 782.337,1437.5 760.385,1475 803.837,1474.739 825.337,1512.5 846.837,1474.739 890.289,1475 
		868.337,1437.5 890.289,1400 	"/>
	<polygon fill="none" stroke="#000000" stroke-width="2" stroke-miterlimit="10" points="976.741,1475.261 955.24,1437.5 
		933.74,1475.261 890.289,1475 912.24,1512.5 890.289,1550 933.74,1549.739 955.24,1587.5 976.741,1549.739 1020.192,1550 
		998.241,1512.5 1020.192,1475 	"/>
	<polygon fill="none" stroke="#000000" stroke-width="2" stroke-miterlimit="10" points="1106.644,1400.261 1085.144,1362.5 
		1063.644,1400.261 1020.192,1400 1042.144,1437.5 1020.192,1475 1063.644,1474.739 1085.144,1512.5 1106.644,1474.739 
		1150.096,1475 1128.144,1437.5 1150.096,1400 	"/>
	<polygon fill="none" stroke="#000000" stroke-width="2" stroke-miterlimit="10" points="1236.548,1475.261 1215.048,1437.5 
		1193.548,1475.261 1150.096,1475 1172.048,1512.5 1150.096,1550 1193.548,1549.739 1215.048,1587.5 1236.548,1549.739 1280,1550 
		1258.048,1512.5 1280,1475 	"/>
	<polygon fill="none" stroke="#000000" stroke-width="2" stroke-miterlimit="10" points="1366.452,1400.261 1344.952,1362.5 
		1323.452,1400.261 1280,1400 1301.952,1437.5 1280,1475 1323.452,1474.739 1344.952,1512.5 1366.452,1474.739 1409.904,1475 
		1387.952,1437.5 1409.904,1400 	"/>
	<polygon fill="none" stroke="#000000" stroke-width="2" stroke-miterlimit="10" points="1496.356,1475.261 1474.856,1437.5 
		1453.356,1475.261 1409.904,1475 1431.856,1512.5 1409.904,1550 1453.356,1549.739 1474.856,1587.5 1496.356,1549.739 
		1539.808,1550 1517.856,1512.5 1539.808,1475 	"/>
	<polygon fill="none" stroke="#000000" stroke-width="2" stroke-miterlimit="10" points="1626.26,1400.261 1604.76,1362.5 
		1583.26,1400.261 1539.808,1400 1561.759,1437.5 1539.808,1475 1583.26,1474.739 1604.76,1512.5 1626.26,1474.739 1669.711,1475 
		1647.76,1437.5 1669.711,1400 	"/>
	<polygon fill="none" stroke="#000000" stroke-width="2" stroke-miterlimit="10" points="1756.163,1475.261 1734.663,1437.5 
		1713.163,1475.261 1669.711,1475 1691.663,1512.5 1669.711,1550 1713.163,1549.739 1734.663,1587.5 1756.163,1549.739 
		1799.615,1550 1777.663,1512.5 1799.615,1475 	"/>
	<polygon fill="none" stroke="#000000" stroke-width="2" stroke-miterlimit="10" points="1886.067,1400.261 1864.567,1362.5 
		1843.067,1400.261 1799.615,1400 1821.567,1437.5 1799.615,1475 1843.067,1474.739 1864.567,1512.5 1886.067,1474.739 
		1929.519,1475 1907.567,1437.5 1929.519,1400 	"/>
	<polygon fill="none" stroke="#000000" stroke-width="2" stroke-miterlimit="10" points="2015.971,1475.261 1994.471,1437.5 
		1972.971,1475.261 1929.519,1475 1951.471,1512.5 1929.519,1550 1972.971,1549.739 1994.471,1587.5 2015.971,1549.739 
		2059.423,1550 2037.471,1512.5 2059.423,1475 	"/>
	<polygon fill="none" stroke="#000000" stroke-width="2" stroke-miterlimit="10" points="2145.875,1400.261 2124.375,1362.5 
		2102.875,1400.261 2059.423,1400 2081.375,1437.5 2059.423,1475 2102.875,1474.739 2124.375,1512.5 2145.875,1474.739 
		2189.327,1475 2167.375,1437.5 2189.327,1400 	"/>
	<polygon fill="none" stroke="#000000" stroke-width="2" stroke-miterlimit="10" points="2275.779,1475.261 2254.279,1437.5 
		2232.779,1475.261 2189.327,1475 2211.278,1512.5 2189.327,1550 2232.779,1549.739 2254.279,1587.5 2275.779,1549.739 
		2319.23,1550 2297.279,1512.5 2319.23,1475 	"/>
	<polygon fill="none" stroke="#000000" stroke-width="2" stroke-miterlimit="10" points="2405.682,1400.261 2384.182,1362.5 
		2362.682,1400.261 2319.23,1400 2341.182,1437.5 2319.23,1475 2362.682,1474.739 2384.182,1512.5 2405.682,1474.739 2449.134,1475 
		2427.183,1437.5 2449.134,1400 	"/>
	<polygon fill="none" stroke="#000000" stroke-width="2" stroke-miterlimit="10" points="2557.086,1512.5 2560,1507.523 
		2560,1475.114 2535.586,1475.261 2514.086,1437.5 2492.586,1475.261 2449.134,1475 2471.086,1512.5 2449.134,1550 
		2492.586,1549.739 2514.086,1587.5 2535.586,1549.739 2560,1549.886 2560,1517.477 	"/>
	<polygon fill="none" stroke="#000000" stroke-width="2" stroke-miterlimit="10" points="110.866,1550 67.414,1550.261 
		45.914,1512.5 24.414,1550.261 0,1550.114 0,1582.523 2.914,1587.5 0,1592.477 0,1600 96.231,1600 88.914,1587.5 	"/>
	<polygon fill="none" stroke="#000000" stroke-width="2" stroke-miterlimit="10" points="168.7,1600 182.935,1600 175.818,1587.5 	
		"/>
	<polygon fill="none" stroke="#000000" stroke-width="2" stroke-miterlimit="10" points="370.673,1550 327.221,1550.261 
		305.721,1512.5 284.221,1550.261 240.77,1550 262.721,1587.5 255.404,1600 356.039,1600 348.722,1587.5 	"/>
	<polygon fill="none" stroke="#000000" stroke-width="2" stroke-miterlimit="10" points="428.508,1600 442.742,1600 435.625,1587.5 
			"/>
	<polygon fill="none" stroke="#000000" stroke-width="2" stroke-miterlimit="10" points="630.481,1550 587.029,1550.261 
		565.529,1512.5 544.029,1550.261 500.577,1550 522.529,1587.5 515.212,1600 615.846,1600 608.529,1587.5 	"/>
	<polygon fill="none" stroke="#000000" stroke-width="2" stroke-miterlimit="10" points="688.316,1600 702.55,1600 695.433,1587.5 	
		"/>
	<polygon fill="none" stroke="#000000" stroke-width="2" stroke-miterlimit="10" points="890.289,1550 846.837,1550.261 
		825.337,1512.5 803.837,1550.261 760.385,1550 782.337,1587.5 775.019,1600 875.654,1600 868.337,1587.5 	"/>
	<polygon fill="none" stroke="#000000" stroke-width="2" stroke-miterlimit="10" points="948.123,1600 962.358,1600 955.24,1587.5 	
		"/>
	<polygon fill="none" stroke="#000000" stroke-width="2" stroke-miterlimit="10" points="1150.096,1550 1106.644,1550.261 
		1085.144,1512.5 1063.644,1550.261 1020.192,1550 1042.144,1587.5 1034.827,1600 1135.462,1600 1128.144,1587.5 	"/>
	<polygon fill="none" stroke="#000000" stroke-width="2" stroke-miterlimit="10" points="1207.931,1600 1222.165,1600 
		1215.048,1587.5 	"/>
	<polygon fill="none" stroke="#000000" stroke-width="2" stroke-miterlimit="10" points="1409.904,1550 1366.452,1550.261 
		1344.952,1512.5 1323.452,1550.261 1280,1550 1301.952,1587.5 1294.635,1600 1395.269,1600 1387.952,1587.5 	"/>
	<polygon fill="none" stroke="#000000" stroke-width="2" stroke-miterlimit="10" points="1467.739,1600 1481.973,1600 
		1474.856,1587.5 	"/>
	<polygon fill="none" stroke="#000000" stroke-width="2" stroke-miterlimit="10" points="1669.711,1550 1626.26,1550.261 
		1604.76,1512.5 1583.26,1550.261 1539.808,1550 1561.759,1587.5 1554.442,1600 1655.077,1600 1647.76,1587.5 	"/>
	<polygon fill="none" stroke="#000000" stroke-width="2" stroke-miterlimit="10" points="1727.546,1600 1741.781,1600 
		1734.663,1587.5 	"/>
	<polygon fill="none" stroke="#000000" stroke-width="2" stroke-miterlimit="10" points="1929.519,1550 1886.067,1550.261 
		1864.567,1512.5 1843.067,1550.261 1799.615,1550 1821.567,1587.5 1814.25,1600 1914.885,1600 1907.567,1587.5 	"/>
	<polygon fill="none" stroke="#000000" stroke-width="2" stroke-miterlimit="10" points="1987.354,1600 2001.588,1600 
		1994.471,1587.5 	"/>
	<polygon fill="none" stroke="#000000" stroke-width="2" stroke-miterlimit="10" points="2189.327,1550 2145.875,1550.261 
		2124.375,1512.5 2102.875,1550.261 2059.423,1550 2081.375,1587.5 2074.057,1600 2174.692,1600 2167.375,1587.5 	"/>
	<polygon fill="none" stroke="#000000" stroke-width="2" stroke-miterlimit="10" points="2247.161,1600 2261.396,1600 
		2254.279,1587.5 	"/>
	<polygon fill="none" stroke="#000000" stroke-width="2" stroke-miterlimit="10" points="2449.134,1550 2405.682,1550.261 
		2384.182,1512.5 2362.682,1550.261 2319.23,1550 2341.182,1587.5 2333.865,1600 2434.5,1600 2427.183,1587.5 	"/>
	<polygon fill="none" stroke="#000000" stroke-width="2" stroke-miterlimit="10" points="2514.086,1587.5 2506.969,1600 
		2521.203,1600 	"/>
</g>
</svg>
